<svg style="position:absolute;width:0;height:0" xmlns="http://www.w3.org/2000/svg" overflow="hidden"><defs><symbol id="icon-rezart_logo" viewBox="0 0 53 32"><title>rezart_logo</title><path d="M52.943 28.815L36.162.067a.18.18 0 0 0-.278-.001c-.156.15-15.438 26.396-15.438 26.396l-3.659-6.132.04-.159s6.563-1.971 6.563-9.116-7.139-9.197-8.71-9.197H.002l2.467 4.459h11.177s5.688-.426 5.688 4.858-4.333 5.375-5.091 5.375H9.629l8.393 14.095s.777 1.354 2.028 1.354 1.753-.65 2.267-1.394S36.001 7.71 36.001 7.71l10.143 16.962L35.805 18.7l3.855 6.684 10.657 6.132s1.692.693 2.705-.279-.077-2.424-.077-2.424zM4.454 18.94L.159 11.534v17.842s-.017 1.752 2.188 1.752 2.148-1.832 2.148-1.832z"/></symbol></defs></svg>