<svg style="position: absolute; width: 0; height: 0; overflow: hidden;" version="1.1" xmlns="http://www.w3.org/2000/svg" xmlns:xlink="http://www.w3.org/1999/xlink">
<defs>
<symbol id="icon-rezart_logo" viewBox="0 0 53 32">
<title>rezart_logo</title>
<path d="M52.943 28.815l-16.781-28.748c-0.033-0.040-0.083-0.066-0.139-0.066s-0.106 0.025-0.139 0.065l-0 0c-0.156 0.15-15.438 26.396-15.438 26.396l-3.659-6.132 0.040-0.159s6.563-1.971 6.563-9.116-7.139-9.197-8.71-9.197h-14.678l2.467 4.459h11.177s5.688-0.426 5.688 4.858-4.333 5.375-5.091 5.375h-4.614l8.393 14.095s0.777 1.354 2.028 1.354 1.753-0.65 2.267-1.394 13.684-22.895 13.684-22.895l10.143 16.962-10.339-5.972 3.855 6.684 10.657 6.132s1.692 0.693 2.705-0.279-0.077-2.424-0.077-2.424zM4.454 18.94l-4.295-7.406v17.842s-0.017 1.752 2.188 1.752 2.148-1.832 2.148-1.832z"></path>
</symbol>
</defs>
</svg>
